<svg width="20" height="21" viewBox="0 0 20 21" fill="none" xmlns="http://www.w3.org/2000/svg">
<path d="M16.876 6.50049H3.12598C2.7808 6.50049 2.50098 6.78031 2.50098 7.12549V17.1255C2.50098 17.4707 2.7808 17.7505 3.12598 17.7505H16.876C17.2212 17.7505 17.501 17.4707 17.501 17.1255V7.12549C17.501 6.78031 17.2212 6.50049 16.876 6.50049Z" stroke="black" stroke-linecap="round" stroke-linejoin="round"/>
<path d="M13.125 6.50049V5.25049C13.125 4.91897 12.9933 4.60103 12.7589 4.3666C12.5245 4.13218 12.2065 4.00049 11.875 4.00049H8.125C7.79348 4.00049 7.47554 4.13218 7.24112 4.3666C7.0067 4.60103 6.875 4.91897 6.875 5.25049V6.50049" stroke="black" stroke-linecap="round" stroke-linejoin="round"/>
</svg>
