<svg width="28" height="28" viewBox="0 0 28 28" fill="none" xmlns="http://www.w3.org/2000/svg">
<path d="M14 24.5C19.799 24.5 24.5 19.799 24.5 14C24.5 8.20101 19.799 3.5 14 3.5C8.20101 3.5 3.5 8.20101 3.5 14C3.5 19.799 8.20101 24.5 14 24.5Z" stroke="black" stroke-width="2" stroke-linecap="round" stroke-linejoin="round"/>
<path d="M17.5 16.6252C16.9489 17.3596 16.1808 17.9021 15.3044 18.1757C14.4279 18.4493 13.4876 18.4403 12.6166 18.1499C11.7456 17.8594 10.988 17.3023 10.4512 16.5575C9.91436 15.8126 9.62549 14.9177 9.62549 13.9995C9.62548 13.0814 9.91434 12.1865 10.4512 11.4416C10.988 10.6967 11.7455 10.1396 12.6165 9.84917C13.4876 9.55873 14.4279 9.54968 15.3043 9.82331C16.1807 10.0969 16.9489 10.6394 17.4999 11.3738" stroke="black" stroke-width="2" stroke-linecap="round" stroke-linejoin="round"/>
</svg>
