<svg width="20" height="20" viewBox="0 0 20 20" fill="none" xmlns="http://www.w3.org/2000/svg">
<path d="M12.4995 6.24951L5.99112 12.866C5.7567 13.1004 5.625 13.4184 5.625 13.7499C5.625 14.0814 5.7567 14.3994 5.99112 14.6338C6.22554 14.8682 6.54348 14.9999 6.875 14.9999C7.20652 14.9999 7.52446 14.8682 7.75888 14.6338L15.5173 6.76728C15.7495 6.53513 15.9336 6.25953 16.0592 5.95622C16.1849 5.65291 16.2495 5.32782 16.2495 4.99951C16.2495 4.67121 16.1849 4.34612 16.0592 4.0428C15.9336 3.73949 15.7495 3.46389 15.5173 3.23174C15.2852 2.9996 15.0096 2.81545 14.7063 2.68981C14.4029 2.56418 14.0778 2.49951 13.7495 2.49951C13.4212 2.49951 13.0961 2.56418 12.7928 2.68981C12.4895 2.81545 12.2139 2.9996 11.9818 3.23174L4.22335 11.0982C3.52009 11.8015 3.125 12.7553 3.125 13.7499C3.125 14.7445 3.52009 15.6983 4.22335 16.4015C4.92661 17.1048 5.88044 17.4999 6.875 17.4999C7.86956 17.4999 8.82339 17.1048 9.52665 16.4015L15.937 9.99951" stroke="black" stroke-linecap="round" stroke-linejoin="round"/>
</svg>
