<svg width="164" height="54" viewBox="0 0 164 54" fill="none" xmlns="http://www.w3.org/2000/svg">
<path d="M25.0938 22.5547H33.4961V25.2148H28.3867V35H25.0938V22.5547ZM34.1406 28.6016C34.1406 27.5078 34.4102 26.4492 34.9492 25.4258C35.4883 24.4023 36.25 23.6211 37.2344 23.082C38.2266 22.543 39.332 22.2734 40.5508 22.2734C42.4336 22.2734 43.9766 22.8867 45.1797 24.1133C46.3828 25.332 46.9844 26.875 46.9844 28.7422C46.9844 30.625 46.375 32.1875 45.1562 33.4297C43.9453 34.6641 42.418 35.2812 40.5742 35.2812C39.4336 35.2812 38.3438 35.0234 37.3047 34.5078C36.2734 33.9922 35.4883 33.2383 34.9492 32.2461C34.4102 31.2461 34.1406 30.0312 34.1406 28.6016ZM37.5156 28.7773C37.5156 30.0117 37.8086 30.957 38.3945 31.6133C38.9805 32.2695 39.7031 32.5977 40.5625 32.5977C41.4219 32.5977 42.1406 32.2695 42.7188 31.6133C43.3047 30.957 43.5977 30.0039 43.5977 28.7539C43.5977 27.5352 43.3047 26.5977 42.7188 25.9414C42.1406 25.2852 41.4219 24.957 40.5625 24.957C39.7031 24.957 38.9805 25.2852 38.3945 25.9414C37.8086 26.5977 37.5156 27.543 37.5156 28.7773ZM60.0977 26.2344L56.8516 26.8203C56.7422 26.1719 56.4922 25.6836 56.1016 25.3555C55.7188 25.0273 55.2188 24.8633 54.6016 24.8633C53.7812 24.8633 53.125 25.1484 52.6328 25.7188C52.1484 26.2812 51.9062 27.2266 51.9062 28.5547C51.9062 30.0312 52.1523 31.0742 52.6445 31.6836C53.1445 32.293 53.8125 32.5977 54.6484 32.5977C55.2734 32.5977 55.7852 32.4219 56.1836 32.0703C56.582 31.7109 56.8633 31.0977 57.0273 30.2305L60.2617 30.7812C59.9258 32.2656 59.2812 33.3867 58.3281 34.1445C57.375 34.9023 56.0977 35.2812 54.4961 35.2812C52.6758 35.2812 51.2227 34.707 50.1367 33.5586C49.0586 32.4102 48.5195 30.8203 48.5195 28.7891C48.5195 26.7344 49.0625 25.1367 50.1484 23.9961C51.2344 22.8477 52.7031 22.2734 54.5547 22.2734C56.0703 22.2734 57.2734 22.6016 58.1641 23.2578C59.0625 23.9062 59.707 24.8984 60.0977 26.2344Z" fill="#0064B0"/>
<path d="M61.0469 22.5547H64.5508L67.5273 31.3906L70.4336 22.5547H73.8438L69.4492 34.5312L68.6641 36.6992C68.375 37.4258 68.0977 37.9805 67.832 38.3633C67.5742 38.7461 67.2734 39.0547 66.9297 39.2891C66.5938 39.5312 66.1758 39.7188 65.6758 39.8516C65.1836 39.9844 64.625 40.0508 64 40.0508C63.3672 40.0508 62.7461 39.9844 62.1367 39.8516L61.8438 37.2734C62.3594 37.375 62.8242 37.4258 63.2383 37.4258C64.0039 37.4258 64.5703 37.1992 64.9375 36.7461C65.3047 36.3008 65.5859 35.7305 65.7812 35.0352L61.0469 22.5547ZM86.207 26.2344L82.9609 26.8203C82.8516 26.1719 82.6016 25.6836 82.2109 25.3555C81.8281 25.0273 81.3281 24.8633 80.7109 24.8633C79.8906 24.8633 79.2344 25.1484 78.7422 25.7188C78.2578 26.2812 78.0156 27.2266 78.0156 28.5547C78.0156 30.0312 78.2617 31.0742 78.7539 31.6836C79.2539 32.293 79.9219 32.5977 80.7578 32.5977C81.3828 32.5977 81.8945 32.4219 82.293 32.0703C82.6914 31.7109 82.9727 31.0977 83.1367 30.2305L86.3711 30.7812C86.0352 32.2656 85.3906 33.3867 84.4375 34.1445C83.4844 34.9023 82.207 35.2812 80.6055 35.2812C78.7852 35.2812 77.332 34.707 76.2461 33.5586C75.168 32.4102 74.6289 30.8203 74.6289 28.7891C74.6289 26.7344 75.1719 25.1367 76.2578 23.9961C77.3438 22.8477 78.8125 22.2734 80.6641 22.2734C82.1797 22.2734 83.3828 22.6016 84.2734 23.2578C85.1719 23.9062 85.8164 24.8984 86.207 26.2344ZM89.6055 22.5547H100.633V35H97.3516V25.2266H92.8633V30.8164C92.8633 32.2383 92.6992 33.2383 92.3711 33.8164C92.043 34.3867 91.6797 34.7617 91.2812 34.9414C90.8828 35.1211 90.2422 35.2109 89.3594 35.2109C88.8359 35.2109 88.1445 35.1406 87.2852 35V32.5742C87.3555 32.5742 87.5391 32.582 87.8359 32.5977C88.1797 32.6211 88.4453 32.6328 88.6328 32.6328C89.0781 32.6328 89.3516 32.4883 89.4531 32.1992C89.5547 31.9023 89.6055 31.0859 89.6055 29.75V22.5547ZM102.086 22.5547H105.59L108.566 31.3906L111.473 22.5547H114.883L110.488 34.5312L109.703 36.6992C109.414 37.4258 109.137 37.9805 108.871 38.3633C108.613 38.7461 108.312 39.0547 107.969 39.2891C107.633 39.5312 107.215 39.7188 106.715 39.8516C106.223 39.9844 105.664 40.0508 105.039 40.0508C104.406 40.0508 103.785 39.9844 103.176 39.8516L102.883 37.2734C103.398 37.375 103.863 37.4258 104.277 37.4258C105.043 37.4258 105.609 37.1992 105.977 36.7461C106.344 36.3008 106.625 35.7305 106.82 35.0352L102.086 22.5547ZM116.875 22.5547H125.277V25.2148H120.168V35H116.875V22.5547ZM126.93 22.5547H130.094V30.3711L135.156 22.5547H138.391V35H135.227V27.043L130.094 35H126.93V22.5547Z" fill="#EF5067"/>
<rect x="0.5" y="0.5" width="163" height="53" rx="26.5" stroke="black"/>
</svg>
