<svg width="114" height="19" viewBox="0 0 114 19" fill="none" xmlns="http://www.w3.org/2000/svg">
<path d="M0.09375 0.554688H8.49609V3.21484H3.38672V13H0.09375V0.554688ZM9.14062 6.60156C9.14062 5.50781 9.41016 4.44922 9.94922 3.42578C10.4883 2.40234 11.25 1.62109 12.2344 1.08203C13.2266 0.542969 14.332 0.273438 15.5508 0.273438C17.4336 0.273438 18.9766 0.886719 20.1797 2.11328C21.3828 3.33203 21.9844 4.875 21.9844 6.74219C21.9844 8.625 21.375 10.1875 20.1562 11.4297C18.9453 12.6641 17.418 13.2812 15.5742 13.2812C14.4336 13.2812 13.3438 13.0234 12.3047 12.5078C11.2734 11.9922 10.4883 11.2383 9.94922 10.2461C9.41016 9.24609 9.14062 8.03125 9.14062 6.60156ZM12.5156 6.77734C12.5156 8.01172 12.8086 8.95703 13.3945 9.61328C13.9805 10.2695 14.7031 10.5977 15.5625 10.5977C16.4219 10.5977 17.1406 10.2695 17.7188 9.61328C18.3047 8.95703 18.5977 8.00391 18.5977 6.75391C18.5977 5.53516 18.3047 4.59766 17.7188 3.94141C17.1406 3.28516 16.4219 2.95703 15.5625 2.95703C14.7031 2.95703 13.9805 3.28516 13.3945 3.94141C12.8086 4.59766 12.5156 5.54297 12.5156 6.77734ZM35.0977 4.23438L31.8516 4.82031C31.7422 4.17188 31.4922 3.68359 31.1016 3.35547C30.7188 3.02734 30.2188 2.86328 29.6016 2.86328C28.7812 2.86328 28.125 3.14844 27.6328 3.71875C27.1484 4.28125 26.9062 5.22656 26.9062 6.55469C26.9062 8.03125 27.1523 9.07422 27.6445 9.68359C28.1445 10.293 28.8125 10.5977 29.6484 10.5977C30.2734 10.5977 30.7852 10.4219 31.1836 10.0703C31.582 9.71094 31.8633 9.09766 32.0273 8.23047L35.2617 8.78125C34.9258 10.2656 34.2812 11.3867 33.3281 12.1445C32.375 12.9023 31.0977 13.2812 29.4961 13.2812C27.6758 13.2812 26.2227 12.707 25.1367 11.5586C24.0586 10.4102 23.5195 8.82031 23.5195 6.78906C23.5195 4.73438 24.0625 3.13672 25.1484 1.99609C26.2344 0.847656 27.7031 0.273438 29.5547 0.273438C31.0703 0.273438 32.2734 0.601562 33.1641 1.25781C34.0625 1.90625 34.707 2.89844 35.0977 4.23438Z" fill="#0064B0"/>
<path d="M36.0469 0.554688H39.5508L42.5273 9.39062L45.4336 0.554688H48.8438L44.4492 12.5312L43.6641 14.6992C43.375 15.4258 43.0977 15.9805 42.832 16.3633C42.5742 16.7461 42.2734 17.0547 41.9297 17.2891C41.5938 17.5312 41.1758 17.7188 40.6758 17.8516C40.1836 17.9844 39.625 18.0508 39 18.0508C38.3672 18.0508 37.7461 17.9844 37.1367 17.8516L36.8438 15.2734C37.3594 15.375 37.8242 15.4258 38.2383 15.4258C39.0039 15.4258 39.5703 15.1992 39.9375 14.7461C40.3047 14.3008 40.5859 13.7305 40.7812 13.0352L36.0469 0.554688ZM61.207 4.23438L57.9609 4.82031C57.8516 4.17188 57.6016 3.68359 57.2109 3.35547C56.8281 3.02734 56.3281 2.86328 55.7109 2.86328C54.8906 2.86328 54.2344 3.14844 53.7422 3.71875C53.2578 4.28125 53.0156 5.22656 53.0156 6.55469C53.0156 8.03125 53.2617 9.07422 53.7539 9.68359C54.2539 10.293 54.9219 10.5977 55.7578 10.5977C56.3828 10.5977 56.8945 10.4219 57.293 10.0703C57.6914 9.71094 57.9727 9.09766 58.1367 8.23047L61.3711 8.78125C61.0352 10.2656 60.3906 11.3867 59.4375 12.1445C58.4844 12.9023 57.207 13.2812 55.6055 13.2812C53.7852 13.2812 52.332 12.707 51.2461 11.5586C50.168 10.4102 49.6289 8.82031 49.6289 6.78906C49.6289 4.73438 50.1719 3.13672 51.2578 1.99609C52.3438 0.847656 53.8125 0.273438 55.6641 0.273438C57.1797 0.273438 58.3828 0.601562 59.2734 1.25781C60.1719 1.90625 60.8164 2.89844 61.207 4.23438ZM64.6055 0.554688H75.6328V13H72.3516V3.22656H67.8633V8.81641C67.8633 10.2383 67.6992 11.2383 67.3711 11.8164C67.043 12.3867 66.6797 12.7617 66.2812 12.9414C65.8828 13.1211 65.2422 13.2109 64.3594 13.2109C63.8359 13.2109 63.1445 13.1406 62.2852 13V10.5742C62.3555 10.5742 62.5391 10.582 62.8359 10.5977C63.1797 10.6211 63.4453 10.6328 63.6328 10.6328C64.0781 10.6328 64.3516 10.4883 64.4531 10.1992C64.5547 9.90234 64.6055 9.08594 64.6055 7.75V0.554688ZM77.0859 0.554688H80.5898L83.5664 9.39062L86.4727 0.554688H89.8828L85.4883 12.5312L84.7031 14.6992C84.4141 15.4258 84.1367 15.9805 83.8711 16.3633C83.6133 16.7461 83.3125 17.0547 82.9688 17.2891C82.6328 17.5312 82.2148 17.7188 81.7148 17.8516C81.2227 17.9844 80.6641 18.0508 80.0391 18.0508C79.4062 18.0508 78.7852 17.9844 78.1758 17.8516L77.8828 15.2734C78.3984 15.375 78.8633 15.4258 79.2773 15.4258C80.043 15.4258 80.6094 15.1992 80.9766 14.7461C81.3438 14.3008 81.625 13.7305 81.8203 13.0352L77.0859 0.554688ZM91.875 0.554688H100.277V3.21484H95.168V13H91.875V0.554688ZM101.93 0.554688H105.094V8.37109L110.156 0.554688H113.391V13H110.227V5.04297L105.094 13H101.93V0.554688Z" fill="#EF5067"/>
</svg>
