<svg width="20" height="21" viewBox="0 0 20 21" fill="none" xmlns="http://www.w3.org/2000/svg">
<g clip-path="url(#clip0)">
<path d="M4.12126 3.82031C3.28626 3.82031 2.51501 4.23781 2.05064 4.93344L0.312511 7.53156C0.107956 7.83791 -0.000825997 8.1982 1.07361e-05 8.56656V12.7072C-0.00114166 12.9846 0.0905077 13.2545 0.260383 13.4739C0.430257 13.6932 0.668603 13.8495 0.937511 13.9178L2.55876 14.3284C2.67536 14.8902 2.9816 15.3947 3.42611 15.7574C3.87061 16.12 4.42632 16.3188 5.00001 16.3203C6.15751 16.3203 7.12376 15.5197 7.40251 14.4453H13.2225C13.5013 15.5197 14.4675 16.3203 15.625 16.3203C16.7825 16.3203 17.7488 15.5197 18.0275 14.4453H18.75C19.4338 14.4453 20 13.8791 20 13.1953V10.9103C19.9994 10.3532 19.8127 9.8123 19.4694 9.3735C19.1262 8.9347 18.6462 8.62318 18.1056 8.48844L14.7263 7.62906L12.285 4.71906C12.0515 4.43805 11.759 4.21186 11.4282 4.05654C11.0975 3.90122 10.7366 3.82057 10.3713 3.82031H4.12126ZM4.12126 5.07031H6.87501V7.57031H1.79689L3.08626 5.63656V5.61719C3.1995 5.44711 3.35342 5.308 3.53406 5.2125C3.71469 5.117 3.91632 5.06812 4.12064 5.07031H4.12126ZM8.12501 5.07031H10.3713C10.7419 5.07031 11.0913 5.23406 11.3281 5.51969L13.0469 7.57031H8.12501V5.07031ZM1.25001 8.82031H14.2969L17.8125 9.69906C18.0823 9.766 18.3216 9.92199 18.4917 10.1418C18.6618 10.3616 18.7528 10.6324 18.75 10.9103V13.1953H18.0275C17.7488 12.1209 16.7825 11.3203 15.625 11.3203C14.4675 11.3203 13.5013 12.1209 13.2225 13.1953H7.40251C7.12376 12.1209 6.15751 11.3203 5.00001 11.3203C3.89189 11.3203 2.96126 12.0528 2.63689 13.0584L1.25001 12.7078V8.82031ZM5.00001 12.5703C5.69814 12.5703 6.25001 13.1222 6.25001 13.8203C6.25001 14.5184 5.69814 15.0703 5.00001 15.0703C4.30189 15.0703 3.75001 14.5184 3.75001 13.8203C3.75001 13.1222 4.30189 12.5703 5.00001 12.5703ZM15.625 12.5703C16.3231 12.5703 16.875 13.1222 16.875 13.8203C16.875 14.5184 16.3231 15.0703 15.625 15.0703C14.9269 15.0703 14.375 14.5184 14.375 13.8203C14.375 13.1222 14.9269 12.5703 15.625 12.5703Z" fill="black"/>
</g>
<defs>
<clipPath id="clip0">
<rect width="20" height="20" fill="white" transform="translate(0 0.0703125)"/>
</clipPath>
</defs>
</svg>
