<svg width="122" height="104" viewBox="0 0 122 104" fill="none" xmlns="http://www.w3.org/2000/svg">
<path d="M109.8 20H12.2C5.4595 20 0 23.759 0 28.4V104L24.4 87.2H109.8C116.541 87.2 122 83.441 122 78.8V28.4C122 23.759 116.541 20 109.8 20Z" fill="#AA1717"/>
<path d="M24.3887 53.2539H14.791V71H12.1523V51.0938H24.3887V53.2539ZM42.832 71H40.1934V53.2539H30.377V71H27.752V51.0938H42.832V71ZM60.168 51.0938H62.793V71H60.168V55.6602L50.3652 71H47.7266V51.0938H50.3652V66.4336L60.168 51.0938Z" fill="white"/>
<path d="M66.9708 49.4508L68.1642 46.8546L66.4226 45.7591L64.731 47.6459C64.731 47.6459 65.0807 49.7117 63.9997 51.1077C64.0003 51.108 65.3068 49.6075 66.9708 49.4508ZM65.9418 47.9637C66.1911 47.9122 66.4377 48.0706 66.4906 48.3159C66.5444 48.5614 66.3854 48.8025 66.1361 48.8539C65.8868 48.9054 65.6402 48.747 65.5873 48.5017C65.5328 48.2551 65.6919 48.014 65.9418 47.9637Z" fill="white"/>
<path d="M92.6338 21.5573C86.3836 24.9833 77.5753 32.8033 69.5556 42.3641L69.553 42.3593L68.1537 44.017L69.1937 44.6587L70.0788 43.2093C74.3723 38.0284 85.9101 24.5592 103.708 17.5116C103.708 17.5116 110.295 15.0947 117.048 11.3099C115.404 12.2312 112.321 13.1942 110.62 13.8696C106.157 15.6418 100.788 17.0871 92.6338 21.5573Z" fill="white"/>
<path d="M70.3551 33.7828C68.3064 37.9051 67.7547 41.2339 68.0604 42.2345L68.8054 42.3743C71.6623 38.4992 84.4672 24.9231 91.5411 21.2489C98.8703 17.4418 104.346 15.4539 108.89 14.1076C110.486 13.6349 112.168 12.905 113.705 12.145C115.582 11.1624 117.499 10.0942 119.204 9.01671L114.478 10.9865L116.893 8.46919L112.628 11.439L115.704 7.9031C110.097 7.36582 104.462 9.1642 104.462 9.1642C101.96 11.2081 99.5862 14.7613 99.5862 14.7613C99.8915 12.8192 101.748 10.1401 101.748 10.1401C100.699 10.4 96.6332 11.8084 96.6332 11.8084C94.5573 12.9614 93.2642 16.7746 93.2642 16.7746C93.2127 15.1651 94.9656 12.4099 94.9656 12.4099C89.2324 14.4191 84.584 18.8021 84.584 18.8021C81.0836 23.3433 82.4517 27.656 81.8315 26.5686C81.2113 25.4812 82.0246 22.092 82.0246 22.092C75.6497 26.2658 74.6159 28.6417 74.6159 28.6417C73.2922 30.6784 71.3879 36.4337 71.3879 36.4337C70.9797 35.7856 72.0713 32.7917 72.0713 32.7917C70.2456 35.3056 70.3848 38.0163 70.3848 38.0163C69.8013 37.6776 70.3551 33.7828 70.3551 33.7828Z" fill="white"/>
<path d="M118.877 10.7644C118.877 10.7644 116.419 12.3894 113.378 13.8927C108.582 16.4035 104.055 18.3419 104.055 18.3419C86.5508 24.6958 74.9194 38.2428 71.0398 42.9082L72.5826 43.1977C73.2099 42.8629 74.0907 42.6869 77.6962 42.3387C82.2517 41.8986 85.3191 39.7707 85.3191 39.7707C85.3191 39.7707 80.9633 41.2383 79.1473 40.6691C77.3312 40.1 74.7041 40.3303 74.7041 40.3303C74.7041 40.3303 73.8338 39.7102 78.665 39.8933C83.4962 40.0764 92.2153 36.267 92.2153 36.267C92.2153 36.267 89.0309 36.9261 87.6875 36.5593C86.3441 36.1926 82.9499 35.6703 82.9499 35.6703C85.2824 35.5747 87.312 36.2605 90.9649 35.6129C94.6178 34.9652 94.4075 35.0404 94.4075 35.0404C98.5151 34.478 100.873 30.77 100.873 30.77C100.156 30.9021 94.9322 30.5687 92.9312 29.5462C90.93 28.5236 87.2036 28.4713 87.2036 28.4713C90.8288 27.9713 91.4906 28.6288 92.3306 28.7483C93.1714 28.8679 95.8215 29.5936 101.511 28.7575C107.2 27.9215 109.144 25.9248 109.144 25.9248L105.45 25.7299C107.878 25.7756 110.823 24.7163 110.823 24.7163C109.11 24.8517 106.529 24.5957 106.529 24.5957C109.647 24.4957 111.488 23.8891 111.488 23.8891C114.693 22.2818 115.931 19.2391 115.931 19.2391C111.695 19.853 108.667 18.6377 108.667 18.6377C114.195 19.2946 115.973 18.1805 116.793 17.9921C117.613 17.8031 118.182 16.4916 118.182 16.4916C115.238 16.9675 112.08 16.5459 112.08 16.5459C115.561 16.6564 118.781 15.4896 118.781 15.4896L119.103 13.7771C117.655 14.2767 115.245 14.4245 115.245 14.4245L119.261 12.7793C119.68 11.6577 118.877 10.7644 118.877 10.7644Z" fill="white"/>
<path d="M66.6897 45.1041L68.6598 46.3571L69.2335 45.4885L67.2636 44.2356L66.6897 45.1041Z" fill="white"/>
<path d="M90.5126 48.7582C82.8395 50.8211 75.6453 51.8585 66.5965 50.4731C65.7522 50.3442 65.5905 51.1824 66.439 51.312C74.5339 52.5515 81.5517 52.0785 88.5746 50.2644C96.398 48.2429 103.533 46.6575 112.72 47.3879C113.567 47.4548 113.366 46.5807 112.524 46.514C104.388 45.8679 97.4878 46.8833 90.5126 48.7582Z" fill="white"/>
</svg>
